<?xml version="1.0" encoding="UTF-8" standalone="no"?>
<!DOCTYPE svg PUBLIC "-//W3C//DTD SVG 1.1//EN" "http://www.w3.org/Graphics/SVG/1.1/DTD/svg11.dtd">
<svg version="1.1" xmlns="http://www.w3.org/2000/svg" xmlns:xlink="http://www.w3.org/1999/xlink" preserveAspectRatio="xMidYMid meet" viewBox="0 0 640 640" width="640" height="640"><defs><path d="M259.43 220.92L279.28 223.35L276.85 243.2L257 240.78L252.14 280.48L540 315.68L535.15 355.38L247.29 320.18L242.43 359.89L262.29 362.32L259.86 382.17L240.01 379.74L240.01 379.74L150.67 368.82L153.1 348.97L172.95 351.39L187.52 232.28L167.66 229.85L170.09 210L189.94 212.43L189.94 212.43L189.94 212.43L259.43 220.92Z" id="bOfCOhKwH"></path><path d="M330 490L60 490L60 430L90 430L90 390L300 390L300 430L330 430L330 430L330 490Z" id="a9ex7gwB"></path></defs><g><g><g><use xlink:href="#bOfCOhKwH" opacity="1" fill="#a0e37a" fill-opacity="1"></use></g><g><use xlink:href="#a9ex7gwB" opacity="1" fill="#a0e37a" fill-opacity="1"></use></g></g></g></svg>